<svg width="24" height="25" viewBox="0 0 24 25" fill="none" xmlns="http://www.w3.org/2000/svg">
<rect x="1" y="1.46533" width="22" height="22" rx="10" fill="#22333B"/>
<path d="M13.148 8.64533C14.276 8.64533 15.026 8.97533 15.398 9.63533C15.77 10.2833 15.956 11.4053 15.956 13.0013C15.956 14.5853 15.758 15.7553 15.362 16.5113C14.966 17.2673 14.192 17.6453 13.04 17.6453C12.14 17.6453 11.51 17.4113 11.15 16.9433H11.078L10.898 17.4653H8.54V5.92733H11.546V9.04133H11.618C12.014 8.77733 12.524 8.64533 13.148 8.64533ZM12.824 14.7653C12.872 14.5493 12.902 14.3393 12.914 14.1353C12.926 13.9313 12.932 13.5473 12.932 12.9833C12.932 12.4073 12.89 11.9693 12.806 11.6693C12.722 11.3573 12.548 11.2013 12.284 11.2013C12.032 11.2013 11.78 11.2733 11.528 11.4173V15.1433C11.756 15.2513 11.972 15.3053 12.176 15.3053C12.392 15.3053 12.542 15.2693 12.626 15.1973C12.722 15.1133 12.788 14.9693 12.824 14.7653Z" fill="white"/>
</svg>
