<svg width="24" height="25" viewBox="0 0 24 25" fill="none" xmlns="http://www.w3.org/2000/svg">
<path d="M17.0405 11.7625H14.3164V10.0804C14.3164 9.69353 14.4121 9.37278 14.6004 9.15505C14.777 8.95085 15.0976 8.76495 15.7111 8.76495H17.1769H17.6769V8.26495V5.40558V4.98363L17.2609 4.91269L17.1769 5.40558L17.2608 4.91268L17.2607 4.91266L17.2604 4.9126L17.2593 4.91242L17.2558 4.91183L17.2432 4.90972L17.196 4.90208C17.1553 4.89558 17.0964 4.8864 17.0219 4.87545C16.8731 4.85356 16.6618 4.82448 16.41 4.79543C15.9086 4.73758 15.2371 4.6787 14.5744 4.6787C13.1452 4.6787 11.9088 5.11347 11.0291 5.99411C10.1489 6.87524 9.68359 8.14486 9.68359 9.7012V11.7625H7.23047H6.73047V12.2625V15.6229V16.1229H7.23047H9.68359V22.2625H3.75C3.28587 22.2625 2.84075 22.0781 2.51256 21.7499C2.18437 21.4217 2 20.9766 2 20.5125V4.01245C2 3.54832 2.18437 3.1032 2.51256 2.77501C2.84075 2.44683 3.28587 2.26245 3.75 2.26245H20.25C20.7141 2.26245 21.1592 2.44683 21.4874 2.77501C21.8156 3.1032 22 3.54832 22 4.01245V20.5125C22 20.9766 21.8156 21.4217 21.4874 21.7499C21.1592 22.0781 20.7141 22.2625 20.25 22.2625H14.3164V16.1229H16.5248H16.954L17.0191 15.6988L17.5347 12.3383L17.623 11.7625H17.0405Z" fill="#22333B" stroke="#22333B"/>
</svg>
