<svg width="24" height="25" viewBox="0 0 24 25" fill="none" xmlns="http://www.w3.org/2000/svg">
<path d="M17 2.26245H7C4.23858 2.26245 2 4.50103 2 7.26245V17.2625C2 20.0239 4.23858 22.2625 7 22.2625H17C19.7614 22.2625 22 20.0239 22 17.2625V7.26245C22 4.50103 19.7614 2.26245 17 2.26245Z" stroke="#22333B" stroke-width="2" stroke-linecap="round" stroke-linejoin="round"/>
<path d="M15.9997 11.6325C16.1231 12.4648 15.981 13.3147 15.5935 14.0615C15.206 14.8083 14.5929 15.4139 13.8413 15.7922C13.0898 16.1704 12.2382 16.3021 11.4075 16.1684C10.5768 16.0348 9.80947 15.6426 9.21455 15.0477C8.61962 14.4527 8.22744 13.6854 8.09377 12.8547C7.96011 12.0241 8.09177 11.1724 8.47003 10.4209C8.84829 9.66936 9.45389 9.05625 10.2007 8.66875C10.9475 8.28125 11.7975 8.1391 12.6297 8.26251C13.4786 8.38839 14.2646 8.78397 14.8714 9.39082C15.4782 9.99766 15.8738 10.7836 15.9997 11.6325Z" stroke="#22333B" stroke-width="2" stroke-linecap="round" stroke-linejoin="round"/>
<path d="M17.5 6.76245H17.51" stroke="#22333B" stroke-width="3" stroke-linecap="round" stroke-linejoin="round"/>
</svg>
