<svg width="24" height="24" viewBox="0 0 24 24" fill="none" xmlns="http://www.w3.org/2000/svg">
<path d="M11.8492 13.106C15.3257 12.5148 19.3409 6.30237 18.7641 2.90994C18.5043 1.38205 17.1754 0.668835 15.2084 1.0033C13.0702 1.36688 11.845 2.70493 10.1302 2.99652C8.40049 3.29064 6.79798 2.43341 4.67863 2.79379C2.71164 3.12826 1.69314 4.24063 1.95294 5.76852C2.52979 9.16095 8.37273 13.6971 11.8492 13.106ZM18.3909 12.5616C19.1041 14.0012 20.6738 14.7451 21.8969 14.2236C23.1199 13.7021 23.5329 12.1125 22.8197 10.673C22.1065 9.23346 20.5367 8.48957 19.3137 9.01105C18.0907 9.53253 17.6776 11.1221 18.3909 12.5616ZM14.8366 14.102C13.5427 14.6887 13.1761 16.6339 14.0177 18.4467C14.8593 20.2594 16.5904 21.2529 17.8843 20.6662C19.1782 20.0795 19.5448 18.1343 18.7032 16.3216C17.8616 14.5088 16.13 13.515 14.8366 14.102ZM2.73603 17.4813C4.06269 17.5692 5.29788 16.3483 5.49568 14.7539C5.69304 13.1595 4.77782 11.7958 3.45116 11.7079C2.1245 11.6199 0.889309 12.8408 0.691513 14.4352C0.494153 16.0296 1.40937 17.3933 2.73603 17.4813ZM9.35897 15.0335C7.94385 14.9074 6.63842 16.4172 6.44331 18.4063C6.24819 20.3953 7.23698 22.1096 8.65218 22.2361C10.0674 22.3625 11.3727 20.8523 11.5678 18.8633C11.763 16.8742 10.7741 15.1595 9.35897 15.0335Z" fill="#C6AC8F"/>
</svg>
