<svg width="50" height="46" viewBox="0 0 50 46" fill="none" xmlns="http://www.w3.org/2000/svg">
<g clip-path="url(#clip0_27_17)">
<path d="M14.1062 13.1494C13.5106 9.67367 7.29307 5.66631 3.90137 6.24739C2.37381 6.50912 1.66228 7.83892 1.99922 9.8055C2.3655 11.9432 3.7051 13.1667 3.99885 14.8812C4.29515 16.6105 3.43995 18.2141 3.803 20.333C4.13995 22.2996 5.25361 23.3167 6.78117 23.0549C10.1729 22.4738 14.7016 16.6251 14.1062 13.1494ZM13.5535 6.60841C14.9922 5.8934 15.7341 4.32276 15.2111 3.10032C14.688 1.87798 13.0979 1.46698 11.6593 2.182C10.2207 2.89702 9.47876 4.46775 10.0018 5.69009C10.5248 6.91244 12.1149 7.32353 13.5535 6.60841ZM15.0984 10.1608C15.6867 11.4539 17.6324 11.8181 19.4441 10.9742C21.2557 10.1303 22.2471 8.39794 21.6587 7.10478C21.0704 5.81162 19.1247 5.44748 17.3131 6.29137C15.5014 7.13526 14.5098 8.86811 15.0984 10.1608ZM18.493 22.2571C18.5792 20.9303 17.3567 19.6966 15.7621 19.5009C14.1674 19.3055 12.8049 20.2224 12.7187 21.5492C12.6323 22.876 13.8548 24.1096 15.4494 24.3054C17.0441 24.5008 18.4066 23.5838 18.493 22.2571ZM16.0368 15.6372C15.9125 17.0525 17.4239 18.356 19.4133 18.5486C21.4025 18.7412 23.1156 17.7503 23.2403 16.3349C23.3649 14.9195 21.853 13.6161 19.8638 13.4236C17.8745 13.2309 16.161 14.2219 16.0368 15.6372Z" fill="#C6AC8F"/>
</g>
<g clip-path="url(#clip1_27_17)">
<path d="M38.1213 33.1646C37.5257 29.6888 31.3082 25.6815 27.9165 26.2625C26.389 26.5243 25.6774 27.8541 26.0144 29.8206C26.3806 31.9584 27.7202 33.1819 28.014 34.8963C28.3103 36.6257 27.4551 38.2292 27.8181 40.3481C28.1551 42.3147 29.2687 43.3318 30.7963 43.0701C34.188 42.4889 38.7168 36.6403 38.1213 33.1646ZM37.5686 26.6235C39.0073 25.9085 39.7493 24.3379 39.2262 23.1155C38.7032 21.8931 37.113 21.4821 35.6744 22.1971C34.2358 22.9122 33.4939 24.4829 34.0169 25.7052C34.5399 26.9276 36.13 27.3387 37.5686 26.6235ZM39.1135 30.1759C39.7019 31.4691 41.6475 31.8332 43.4592 30.9893C45.2709 30.1454 46.2622 28.4131 45.6739 27.1199C45.0855 25.8268 43.1399 25.4626 41.3282 26.3065C39.5165 27.1504 38.5249 28.8832 39.1135 30.1759ZM42.5081 42.2722C42.5943 40.9454 41.3719 39.7118 39.7772 39.516C38.1826 39.3206 36.82 40.2376 36.7338 41.5644C36.6475 42.8911 37.8699 44.1248 39.4646 44.3206C41.0592 44.5159 42.4218 43.599 42.5081 42.2722ZM40.0519 35.6524C39.9276 37.0676 41.4391 38.3712 43.4284 38.5638C45.4177 38.7564 47.1307 37.7654 47.2554 36.3501C47.38 34.9347 45.8682 33.6313 43.8789 33.4387C41.8896 33.246 40.1761 34.2371 40.0519 35.6524Z" fill="#C6AC8F"/>
</g>
<defs>
<clipPath id="clip0_27_17">
<rect width="24" height="24" fill="white" transform="translate(1.01514 25.0151) rotate(-90.0723)"/>
</clipPath>
<clipPath id="clip1_27_17">
<rect width="24" height="24" fill="white" transform="translate(25.0303 45.0303) rotate(-90.0723)"/>
</clipPath>
</defs>
</svg>
