<svg width="25" height="25" viewBox="0 0 25 25" fill="none" xmlns="http://www.w3.org/2000/svg">
<g clip-path="url(#clip0_291_407)">
<path d="M13.0245 10.9089C9.69533 11.801 6.35414 18.2123 7.22462 21.461C7.61667 22.9242 8.97487 23.4971 10.8585 22.9924C12.9061 22.4437 13.9764 21.03 15.6185 20.59C17.2749 20.1462 18.9125 20.8343 20.942 20.2905C22.8257 19.7858 23.7154 18.6105 23.3234 17.1474C22.4529 13.8987 16.3537 10.0169 13.0245 10.9089ZM6.7083 12.0347C5.88305 10.6989 4.28773 10.1181 3.1451 10.737C2.00246 11.3559 1.74538 12.9404 2.57062 14.2762C3.39587 15.612 4.99119 16.1929 6.13383 15.574C7.27647 14.9551 7.53355 13.3706 6.7083 12.0347ZM10.0267 10.2119C11.2323 9.52304 11.4118 7.59672 10.4276 5.90939C9.44349 4.22206 7.66841 3.41304 6.46273 4.10186C5.25704 4.79068 5.07762 6.717 6.06176 8.40433C7.04589 10.0917 8.82151 10.901 10.0267 10.2119ZM21.494 5.82083C20.195 5.85616 19.1043 7.15674 19.0571 8.72634C19.0103 10.2958 20.0252 11.5395 21.3242 11.5042C22.6232 11.4689 23.714 10.1683 23.7612 8.59867C23.8079 7.02918 22.793 5.7855 21.494 5.82083ZM15.2722 8.80633C16.6607 8.80002 17.7935 7.21184 17.8021 5.25851C17.8107 3.30517 16.6923 1.72706 15.3036 1.73295C13.915 1.73883 12.7823 3.32743 12.7737 5.28077C12.7651 7.23411 13.8836 8.81263 15.2722 8.80633Z" fill="#EAE0D5"/>
<path d="M8.71613 9.29651L8.71596 9.29661C8.29035 9.53998 7.72146 9.54357 7.10622 9.26311C6.49269 8.98342 5.877 8.43563 5.43116 7.67122C4.98524 6.90668 4.81465 6.10657 4.8764 5.44384C4.93823 4.78028 5.22358 4.29743 5.64826 4.0548C6.07425 3.81143 6.64325 3.80793 7.25837 4.08833C7.87182 4.36797 8.48737 4.91568 8.93323 5.6801C9.37914 6.44464 9.54974 7.24475 9.48798 7.90748C9.42615 8.57104 9.1408 9.05389 8.71613 9.29651ZM6.64508 20.8504C6.45636 20.1461 6.48746 19.2254 6.72059 18.1964C6.95212 17.1745 7.37454 16.0831 7.92735 15.0572C8.48031 14.0311 9.15593 13.085 9.88458 12.3474C10.6179 11.605 11.3765 11.1022 12.0914 10.9107C12.8063 10.7191 13.7146 10.7752 14.7209 11.0515C15.7208 11.326 16.7789 11.8075 17.7709 12.4197C18.7625 13.0317 19.6741 13.7657 20.3855 14.5349C21.1019 15.3095 21.5892 16.0912 21.7779 16.7956C21.9373 17.3903 21.8333 17.8883 21.525 18.2952C21.2046 18.7183 20.6246 19.092 19.7501 19.3263C18.8193 19.5757 17.9731 19.5457 17.1057 19.4973C17.0556 19.4945 17.0053 19.4916 16.9548 19.4887C16.1503 19.4427 15.2931 19.3937 14.4266 19.6258C13.5702 19.8553 12.8586 20.3227 12.189 20.7624C12.1439 20.7921 12.099 20.8216 12.0542 20.8509C11.3286 21.3259 10.6068 21.7763 9.6666 22.0282C8.79208 22.2625 8.10296 22.2288 7.61393 22.0227C7.14348 21.8244 6.80445 21.4452 6.64508 20.8504ZM2.32073 10.6954C3.16217 10.2396 4.48977 10.6336 5.22043 11.8163C5.94779 12.9937 5.64228 14.2149 4.83319 14.6531C3.99175 15.1089 2.66416 14.7149 1.9335 13.5322C1.20614 12.3548 1.51164 11.1336 2.32073 10.6954ZM20.2481 10.5232C19.3283 10.5482 18.4531 9.64336 18.4944 8.26003C18.5362 6.87017 19.4886 5.86545 20.4451 5.83944C21.3649 5.81443 22.24 6.71919 22.1989 8.10244C22.1571 9.49237 21.2046 10.4971 20.2481 10.5232ZM16.2396 4.7751C16.2357 5.66004 15.9765 6.44214 15.585 6.99104C15.1925 7.54143 14.698 7.8229 14.2074 7.82513C13.7183 7.82735 13.2298 7.55187 12.8444 7.00812C12.4596 6.46505 12.2073 5.68684 12.2112 4.80178C12.2151 3.91682 12.4743 3.1346 12.8657 2.58565C13.2582 2.03521 13.7527 1.75382 14.2432 1.75174C14.7325 1.74967 15.2211 2.02525 15.6064 2.56892C15.9912 3.11193 16.2435 3.89003 16.2396 4.7751Z" stroke="#5E503F"/>
</g>
<defs>
<clipPath id="clip0_291_407">
<rect width="24" height="24" fill="white" transform="translate(0.5 0.303345)"/>
</clipPath>
</defs>
</svg>
